<svg xmlns="http://www.w3.org/2000/svg" width="183.533" height="198.827" viewBox="0 0 183.533 198.827">
    <path id="Icon_ionic-md-hand" data-name="Icon ionic-md-hand" d="M181.628,109.43c-6.473-6.469-16-7.052-22.474-.582l-18.5,18.491c-4.816,4.809-10.62,4.819-14.008.822-2.244-2.649-1.359-10.817-.73-16l9.279-76.268a12.8,12.8,0,0,0-10.842-14.225c-6.816-.829-13.013,4.411-13.843,11.224L100.274,92.8c-.535,1.49-1.682,1.748-1.811-.258L94.979,14.677a12.433,12.433,0,0,0-24.866,0l-.245,78.444c.065.905-.712,1.165-.852.13L57.955,32.019c-1.22-6.754-7.688-11.629-14.445-10.409A12.818,12.818,0,0,0,33.484,36.435l9.849,71.655c.01,1.275-.418,2-1.024.369L27.615,69.175c-2.3-6.467-9.407-10.236-15.878-7.939A12.854,12.854,0,0,0,4.182,77.493l25.76,84.158c.134.464.277.925.423,1.384l.054.173c0,.014.011.026.016.039a54.8,54.8,0,0,0,52.113,37.831,74.151,74.151,0,0,0,44.1-14.944h0c13.31-8.011,55.952-53.855,55.952-53.855C189.069,125.808,188.1,115.9,181.628,109.43Z" transform="translate(-3.462 -2.25)"/>
</svg>
